<?xml version="1.0" standalone="no"?>
<!DOCTYPE svg PUBLIC "-//W3C//DTD SVG 20010904//EN"
 "http://www.w3.org/TR/2001/REC-SVG-20010904/DTD/svg10.dtd">
<svg version="1.0" xmlns="http://www.w3.org/2000/svg"
 width="700.000000pt" height="700.000000pt" viewBox="0 0 700.000000 700.000000"
 preserveAspectRatio="xMidYMid meet">
<metadata>
Created by potrace 1.14, written by Peter Selinger 2001-2017
</metadata>
<g transform="translate(0.000000,700.000000) scale(0.100000,-0.100000)"
fill="#000000" stroke="none">
<path d="M3278 6995 c-1 -1 -42 -5 -89 -9 -47 -4 -95 -8 -105 -10 -10 -2 -41
-7 -69 -10 -333 -43 -716 -159 -1030 -312 -180 -87 -448 -247 -555 -331 -8 -6
-51 -40 -95 -74 -337 -262 -654 -629 -875 -1014 -47 -82 -170 -327 -170 -339
0 -3 -11 -29 -24 -58 -41 -92 -114 -303 -142 -413 -4 -16 -8 -34 -10 -40 -5
-16 -25 -98 -30 -120 -39 -194 -47 -242 -60 -350 -26 -230 -26 -667 1 -826 2
-13 6 -46 9 -74 21 -182 109 -546 165 -680 5 -11 29 -74 55 -141 55 -142 169
-372 246 -497 30 -48 60 -95 65 -105 24 -42 133 -191 208 -285 163 -202 344
-382 557 -552 92 -74 370 -265 386 -265 4 0 15 -6 23 -14 26 -22 298 -158 411
-205 267 -111 589 -200 859 -237 25 -3 57 -8 71 -10 163 -25 682 -25 842 1 13
2 46 7 73 10 71 10 87 13 115 18 14 3 43 8 65 12 22 4 76 16 120 27 44 10 87
21 96 23 223 51 591 200 823 334 49 28 91 51 93 51 9 0 267 179 343 239 158
123 331 285 460 430 36 41 70 79 76 85 65 68 263 353 352 508 47 80 182 351
182 364 0 3 8 24 19 47 53 118 147 417 177 562 17 81 54 301 59 350 4 33 9 71
11 85 9 47 11 525 4 605 -15 157 -21 210 -25 225 -2 8 -7 35 -10 60 -17 129
-80 384 -136 552 -203 604 -585 1165 -1064 1563 -33 28 -62 53 -65 56 -4 5
-138 102 -270 196 -110 79 -423 244 -600 316 -218 89 -562 185 -760 212 -19 3
-46 7 -60 10 -13 2 -52 7 -86 11 -33 3 -74 8 -90 10 -33 5 -540 14 -546 9z
m387 -1572 c144 -43 279 -151 350 -278 101 -179 99 -409 -4 -588 -53 -93 -162
-195 -249 -233 -20 -9 -46 -20 -57 -25 -45 -21 -155 -37 -232 -33 -259 10
-483 193 -549 449 -21 85 -17 221 11 311 62 201 221 351 427 403 89 23 216 20
303 -6z m188 -1488 c20 -8 48 -31 64 -52 l28 -36 3 -739 2 -738 107 0 c96 0
111 -3 150 -25 77 -46 83 -68 80 -322 l-2 -220 -28 -36 c-57 -76 -15 -71 -747
-73 -614 -2 -657 0 -695 17 -53 24 -68 37 -88 81 -23 49 -25 419 -3 473 35 82
82 105 221 105 l105 0 0 450 c0 422 -1 450 -17 451 -10 0 -59 2 -108 3 -96 4
-134 16 -171 58 -38 41 -44 82 -44 290 0 208 4 232 49 278 47 49 43 49 567 50
413 0 497 -2 527 -15z"/>
</g>
</svg>
